inDegrees=no
num_controls=7
num_derivatives=13
num_iterations=76
num_multipliers=7
num_parameters=0
num_slacks=7
num_states=26
objective=0.448632
objective_accelerations=0.008702
objective_balance=0.000654
objective_effort=0.005906
objective_height=0.424086
objective_ligament=0.009285
solver_duration=1141.598142
status=Solve_Succeeded
success=true
DataType=double
version=3
OpenSimVersion=4.5
endheader
time	/jointset/ground_pelvis/pelvis_tilt/value	/jointset/ground_pelvis/pelvis_tx/value	/jointset/ground_pelvis/pelvis_ty/value	/jointset/hip_l/hip_flexion_l/value	/jointset/hip_l/hip_adduction_l/value	/jointset/hip_l/hip_rotation_l/value	/jointset/back/lumbar_extension/value	/jointset/patellofemoral_l/patellar_flexion_l/value	/jointset/knee_l/knee_flexion_l/value	/jointset/knee_l/knee_adduction_l/value	/jointset/knee_l/knee_rotation_l/value	/jointset/ankle_l/ankle_angle_l/value	/jointset/subtalar_l/subtalar_angle_l/value	/jointset/ground_pelvis/pelvis_tilt/speed	/jointset/ground_pelvis/pelvis_tx/speed	/jointset/ground_pelvis/pelvis_ty/speed	/jointset/hip_l/hip_flexion_l/speed	/jointset/hip_l/hip_adduction_l/speed	/jointset/hip_l/hip_rotation_l/speed	/jointset/back/lumbar_extension/speed	/jointset/patellofemoral_l/patellar_flexion_l/speed	/jointset/knee_l/knee_flexion_l/speed	/jointset/knee_l/knee_adduction_l/speed	/jointset/knee_l/knee_rotation_l/speed	/jointset/ankle_l/ankle_angle_l/speed	/jointset/subtalar_l/subtalar_angle_l/speed	/forceset/tau_hip_flexion_l	/forceset/tau_hip_adduction_l	/forceset/tau_hip_rotation_l	/forceset/tau_knee_flexion_l	/forceset/tau_ankle_angle_l	/forceset/tau_subtalar_angle_l	/forceset/tau_lumbar_extension	lambda_cid13_p0	lambda_cid13_p1	lambda_cid13_p2	lambda_cid13_p3	lambda_cid13_p4	lambda_cid13_p5	lambda_cid14_p0	/jointset/ground_pelvis/pelvis_tilt/accel	/jointset/ground_pelvis/pelvis_tx/accel	/jointset/ground_pelvis/pelvis_ty/accel	/jointset/hip_l/hip_flexion_l/accel	/jointset/hip_l/hip_adduction_l/accel	/jointset/hip_l/hip_rotation_l/accel	/jointset/back/lumbar_extension/accel	/jointset/patellofemoral_l/patellar_flexion_l/accel	/jointset/knee_l/knee_flexion_l/accel	/jointset/knee_l/knee_adduction_l/accel	/jointset/knee_l/knee_rotation_l/accel	/jointset/ankle_l/ankle_angle_l/accel	/jointset/subtalar_l/subtalar_angle_l/accel	gamma_cid13_p0	gamma_cid13_p1	gamma_cid13_p2	gamma_cid13_p3	gamma_cid13_p4	gamma_cid13_p5	gamma_cid14_p0
1.5	-0.02675609022698407	0.2186871590282408	0.8968040021814726	0.0746742657167781	-0.3172552965057646	-0.2937154296473826	-0.02760680890683815	0.2047707715593318	0.2047707715593318	-0.05594975007222859	-0.1733728059091645	0.2415368225919582	0.1973610136472912	-0.3133716616345541	-0.146976935113181	0.03506796071565096	0.2447408567320468	0.09412054180739363	-0.130099396870347	-0.0009731908350110625	-0.5448154073257353	-0.5448154073257327	4.332048267691353e-05	0.003144606392539101	-0.4901936407982407	-0.09739715815472888	0.05650834990642842	0.03822991251061734	-0.002431293178569863	-0.08783789455239181	-0.06856548310234847	-0.03830640890915376	-0.01335533416078642	-51.30230132602011	21.04397186883965	1.589941391116064	4.49483197908867	-456.8874230868847	-40.59923021237142	-25.91657744264262	-0.03620534841824412	-0.1600269738692924	-0.08824619815869533	0.1630526775504271	-0.01062277480780743	-0.007673973433582761	-0.2202632854903054	-0.0852597687429047	-0.08525976874291852	-0.08817371888075724	-0.0101668289161076	-0.219996887344235	-0.0336204120612128	-2.085503457370629e-09	-2.834501111916175e-08	3.203362452015041e-08	-3.453630825357621e-09	-1.024319281371425e-09	-5.775870583105654e-08	-4.310014590336858e-09
1.51	-0.02989125968034425	0.2172096273980708	0.8971502003013408	0.07712948731220588	-0.3163146851080462	-0.2950165443486301	-0.02762738926888532	0.1993190087068199	0.19931900870682	-0.0559536275896796	-0.1733416815384261	0.2366245691604996	0.1963855942488042	-0.3136255769564019	-0.1485059392252867	0.03416509610666759	0.2462692325494621	0.09399129733286368	-0.1300947255375553	-0.003129149380547609	-0.5454699599146413	-0.5454699599146406	-0.0008171422937518482	0.003097323920642391	-0.4921896848605543	-0.09766973119677468	0.05528363882476452	0.037900316640187	-0.002526850044541929	-0.0864495642939369	-0.06638312335864455	-0.03878044184729714	-0.01256710021634644	-50.59222314281246	21.07635228624316	1.640934427150232	4.111216330316264	-456.5799579201409	-40.52425147696727	-25.91005304477415	-0.01448704540436692	-0.1458203458154368	-0.09229124141917844	0.1425954352041291	-0.01564438042923493	0.00885535777120245	-0.2112023100034756	-0.04547151078982047	-0.04547151079008825	-0.08473183886723244	0.0005544767779118789	-0.179305533786662	-0.02152507156400949	-6.005450341717439e-10	-3.640754637888812e-08	3.41099695385135e-08	-4.376109781371407e-09	1.049434497202942e-09	-6.257562978736246e-08	-4.778188395412756e-09
1.52	-0.03302786877119014	0.2157175090835928	0.897487172845289	0.07959896574608127	-0.3153756799744039	-0.2963167488023226	-0.02766911725057148	0.1938627166270539	0.1938627166270541	-0.05596605959126354	-0.1733105173057858	0.2316943758147955	0.1954079592556391	-0.3136595891317029	-0.1498942719747614	0.03322284553164331	0.2475922244215595	0.09379928899218791	-0.129917347359337	-0.005202714762809979	-0.545721252776562	-0.545721252776563	-0.001667576343912235	0.003152578772920279	-0.4937816236473374	-0.09784027709033032	0.05405892774310068	0.0375707207697567	-0.002622406910514048	-0.08506123403548181	-0.06420076361494059	-0.03925447478544044	-0.01177886627190643	-49.88331881801182	21.10924761856019	1.691492180306326	3.733699337549467	-456.2843478069745	-40.44986985801673	-25.90034174412965	0.00777528089110296	-0.1318927013431115	-0.09612339136687779	0.1219758884868562	-0.02317554803697035	0.0268673956517923	-0.2037846528354708	-0.004607823345807971	-0.004607823345808994	-0.08616797362705579	0.01034063591881192	-0.1391758322381171	-0.01321498236318038	7.521574188268019e-10	-4.397542306453242e-08	3.627566098493762e-08	-5.222258320064283e-09	3.153551230628096e-09	-6.717082482064971e-08	-5.271127103008336e-09
1.53	-0.03616372917964854	0.2142122192930074	0.8978145361813319	0.0820806475640713	-0.3144389089424884	-0.2976143343471031	-0.0277311484246012	0.1884059205134086	0.1884059205134089	-0.05598693965385015	-0.1732783101350742	0.2267502844820599	0.1944291184775512	-0.3134777909551405	-0.1511393803013366	0.03224395705258245	0.2487129656151228	0.09354341001099538	-0.1295763849504685	-0.007186524093732497	-0.5455673151505919	-0.5455673151505922	-0.002506646099359466	0.003298582574613037	-0.4949673932549091	-0.09791232456536826	0.05284183284873148	0.03720873862505605	-0.002719172518825894	-0.08371315355857324	-0.06195822026653647	-0.03971035351109183	-0.0109883592935591	-49.15447387753295	21.13281761479813	1.741194310785714	3.334080400447367	-456.0097214608632	-40.40282697423687	-25.88736275758395	0.02858736593404981	-0.1171753015448539	-0.09964998310104424	0.102447431702373	-0.02852206807595427	0.04121121829836513	-0.1931296808097074	0.03599398952596841	0.03599398952608001	-0.08251134553057046	0.01819519465301514	-0.09789167581703483	-0.00186278074367237	1.964337903487488e-09	-5.101772501521453e-08	3.853628301117658e-08	-5.987305790353692e-09	5.28992860358221e-09	-7.153043287322958e-08	-5.790378519531076e-09
1.54	-0.03929673055036225	0.2126952073385102	0.8981319349511993	0.08457260163337922	-0.3135050422993681	-0.2989078101568363	-0.02781250781345795	0.1829527836628146	0.1829527836628149	-0.05601615738779665	-0.173244349937874	0.2217964126230884	0.1934500245945789	-0.3130877815827686	-0.1522387047571172	0.03122993229650736	0.249646674685138	0.09321841123318038	-0.1290954003498401	-0.009068357728217701	-0.5449894001663201	-0.5449894001663196	-0.003335110615887264	0.00350318407064608	-0.4957377288944942	-0.09789089806718898	0.05162473795436236	0.03684675648035544	-0.00281593812713775	-0.08236507308166464	-0.05971567691813233	-0.04016623223674314	-0.01019785231521173	-48.42650881614504	21.15719830333587	1.790017321945405	2.938769944226407	-455.7415498577252	-40.35457128954285	-25.87105305322432	0.04941752005299514	-0.1027359271842177	-0.1031506467697227	0.08456946377723068	-0.03699950736146922	0.05487183400381047	-0.1833895135480079	0.08018764831450166	0.08018764831454164	-0.08404692584316908	0.02206017478686791	-0.05608903864082564	0.00547981228026714	3.161277983480446e-09	-5.770908839720648e-08	4.055162656294479e-08	-6.704750241406032e-09	7.542543853570126e-09	-7.542567431295473e-08	-6.280212900697857e-09
1.55	-0.04242472827113397	0.2111679437669916	0.8984390360056794	0.08707284939260206	-0.3125747565273059	-0.3001956925703831	-0.02791223200700295	0.1775074897285698	0.1775074897285699	-0.05605359390496791	-0.173207947918014	0.2168369084388098	0.1924716167870296	-0.3124718040844495	-0.1531884312181594	0.03018588422058625	0.2503643727168975	0.09282763700104509	-0.1284527730810097	-0.0108637862542624	-0.5439995727753815	-0.5439995727753815	-0.004149339586062045	0.00379213986623432	-0.4960923969881661	-0.09777498909739948	0.05041715066452276	0.03644891730147989	-0.002912115154535934	-0.08106399919569159	-0.05741211391781263	-0.04059919449239459	-0.009407032686584842	-47.67829808850728	21.17039893588334	1.837975501749283	2.519936920850453	-455.5004267603686	-40.33917024633878	-25.85136134592068	0.07368193093024562	-0.08725580339094911	-0.1056887938572541	0.05959488285991369	-0.04178302487900746	0.073197841561948	-0.1757153131538624	0.1188537684619831	0.1188537684618629	-0.07968799747605382	0.03455787933966677	-0.0145507330612735	0.01700286475196833	4.340658466791024e-09	-6.399610951527285e-08	4.228436665499673e-08	-7.367347735511316e-09	9.92908535318394e-09	-7.878588465526032e-08	-6.736153741128424e-09
1.56	-0.0455453674036807	0.2096319499712973	0.8987355651982297	0.08957911911413942	-0.311648711826313	-0.3014763007775938	-0.02802952964401264	0.1720741887650301	0.1720741887650301	-0.05609908813481523	-0.1731682074207191	0.2118759785659283	0.191494839354263	-0.3116160639377753	-0.1539847495922704	0.02911555991050702	0.2508510671480414	0.09237019701933187	-0.1276405590826027	-0.0125830464211547	-0.5425908060253057	-0.5425908060253067	-0.004946653151094857	0.00417087955761824	-0.4960228666150742	-0.09756482311066483	0.04920956337468328	0.03605107812260441	-0.003008292181934156	-0.07976292530971847	-0.05510855091749289	-0.04103215674804594	-0.008616213057957917	-46.93063714067979	21.18470464233531	1.8846053766029	2.103423338621862	-455.2599366132342	-40.32065893684212	-25.82825660196313	0.09737004972402073	-0.07205430979797625	-0.108405893601349	0.03836874365411332	-0.0503326572770569	0.08878917991959392	-0.1681558417175914	0.1639755201418539	0.1639755201418479	-0.08066384481489169	0.04001695394611365	0.02875065471196174	0.02433121566910467	5.345474267441345e-09	-6.893551505670302e-08	4.372142185420697e-08	-7.846968501586214e-09	1.264135005821009e-08	-8.089489941910293e-08	-7.163653880873057e-09
1.57	-0.04865623477487052	0.2080887702653477	0.8990212742089424	0.09208904070638332	-0.310727583714132	-0.3027481040656143	-0.02816363097097025	0.166657021748361	0.166657021748361	-0.05615249011231101	-0.1731243930824983	0.2069178461386329	0.1905206078866482	-0.3105179177538697	-0.1546246702073472	0.02802276866232292	0.2510946920900259	0.09184222921175658	-0.1267103439260257	-0.01422130413412936	-0.5407706865646215	-0.5407706865646216	-0.005733203663929216	0.004586422497681522	-0.4955318215152735	-0.09726855174189444	0.04800335881787496	0.03561417068422717	-0.003104891822965884	-0.07848875020264816	-0.05279036203215804	-0.04142867966128613	-0.007817990919379366	-46.17704036837542	21.18238885237821	1.933606990925637	1.675622344315254	-455.0553087210226	-40.34508876118877	-25.80186550087179	0.1219611610040756	-0.0559843772840499	-0.1102332645272838	0.01157624867999165	-0.05600812471120165	0.09659357935577119	-0.159273510650811	0.2018183268723049	0.2018183268724342	-0.07757594812826082	0.04149531973186164	0.07004935291551551	0.03421890763627224	6.132084214766348e-09	-7.219040112733796e-08	4.47888709373651e-08	-8.097868357623134e-09	1.576076877000166e-08	-8.143991970986682e-08	-7.555603144760271e-09
1.58	-0.05175493583256522	0.206539986665263	0.8992959518023533	0.09460024192388898	-0.3098121311364695	-0.3040103140229033	-0.02831363742997029	0.1612602135598667	0.161260213559867	-0.05621374265365728	-0.1730765888437377	0.2019667777453957	0.1895497278947521	-0.3091828012387546	-0.1551055284192847	0.02690927645012494	0.2511069922003854	0.09123509011564383	-0.1257218929362883	-0.01576407282964046	-0.5385190403903137	-0.538519040390313	-0.00651676592118673	0.004968859665561843	-0.4946100598034169	-0.0968945279669146	0.04679715426106673	0.03517726324584999	-0.003201491463997647	-0.07721457509557779	-0.05047217314682315	-0.04182520257452624	-0.007019768780800783	-45.4235568043066	21.18145615795759	1.980830989575213	1.247792586747563	-454.8438841679928	-40.36416610986623	-25.77224124984069	0.1447641159658995	-0.04024182917013016	-0.1125460864041235	-0.007896222670885765	-0.06616691498454949	0.1004363465516546	-0.1490580382248846	0.2502808628665564	0.2502808628665557	-0.08006619369962475	0.03339579950952026	0.1148939771231491	0.0398816969108813	6.71015670989054e-09	-7.496769780133518e-08	4.602903850688031e-08	-8.278371650198302e-09	1.862924132453749e-08	-8.232248165922427e-08	-7.945270394874122e-09
